<?xml version="1.0" encoding="UTF-8" standalone="no"?>
<!-- Created with Inkscape (http://www.inkscape.org/) -->

<svg
   width="300"
   height="300"
   viewBox="0 0 300 300"
   version="1.1"
   id="svg5"
   inkscape:version="1.2 (1:1.2+202206011327+fc4e4096c5)"
   sodipodi:docname="favicon.svg"
   xmlns:inkscape="http://www.inkscape.org/namespaces/inkscape"
   xmlns:sodipodi="http://sodipodi.sourceforge.net/DTD/sodipodi-0.dtd"
   xmlns="http://www.w3.org/2000/svg"
   xmlns:svg="http://www.w3.org/2000/svg">
  <sodipodi:namedview
     id="namedview7"
     pagecolor="#505050"
     bordercolor="#ffffff"
     borderopacity="1"
     inkscape:pageshadow="0"
     inkscape:pageopacity="0"
     inkscape:pagecheckerboard="1"
     inkscape:document-units="px"
     showgrid="false"
     inkscape:snap-bbox="false"
     inkscape:snap-global="true"
     inkscape:zoom="1.1525841"
     inkscape:cx="16.050889"
     inkscape:cy="153.13416"
     inkscape:window-width="1366"
     inkscape:window-height="736"
     inkscape:window-x="1366"
     inkscape:window-y="0"
     inkscape:window-maximized="1"
     inkscape:current-layer="layer1"
     inkscape:showpageshadow="0"
     inkscape:deskcolor="#505050" />
  <defs
     id="defs2" />
  <g
     inkscape:groupmode="layer"
     id="layer2"
     inkscape:label="Background"
     style="display:inline">
    <circle
       style="opacity:1;fill:#ffffff;fill-opacity:1;fill-rule:nonzero;stroke:none;stroke-width:53.0693;stroke-opacity:0"
       id="path3754"
       cx="150"
       cy="150"
       r="150" />
  </g>
  <g
     inkscape:label="Typography"
     inkscape:groupmode="layer"
     id="layer1">
    <g
       aria-label="NT"
       id="text1904"
       style="font-style:italic;font-size:156.084px;line-height:1.25;font-family:Molle;-inkscape-font-specification:'Molle, Italic';text-align:center;text-anchor:middle;opacity:1;stroke-width:3.25175"
       inkscape:label="app title">
      <path
         d="m 133.46179,190.35473 q 1.7529,0.53349 3.88686,0.53349 2.21018,0 4.95384,-1.14319 1.44804,0.99077 2.3626,2.66745 0.91455,1.60047 0.91455,2.81988 0,1.2194 -0.99076,3.50579 -0.91456,2.28639 -2.66746,4.64899 -1.75289,2.28638 -4.26792,4.42034 -2.43881,2.13397 -5.41111,3.81065 -11.12708,6.32567 -24.08328,1.90532 -10.746013,-3.582 -15.318787,-14.7853 -2.286386,-5.79218 -2.286386,-12.4227 0,-6.70674 1.981535,-11.73679 2.057748,-5.03005 5.334902,-9.83146 3.277156,-4.87762 7.468866,-9.4504 4.19171,-4.64898 8.53584,-9.06933 4.34414,-4.42035 8.53584,-8.61206 4.19171,-4.19171 7.46887,-8.23099 7.31644,-8.91691 7.31644,-15.16637 0,-7.92614 -7.01159,-10.13631 -2.05775,-0.6097 -6.24946,-0.6097 -4.19171,0 -10.51738,2.89609 -6.24945,2.89609 -12.49891,7.92614 -6.173244,5.03005 -12.11785,11.813 -5.944605,6.78294 -11.279508,14.63287 -5.258689,7.84993 -9.602824,16.30956 -12.803765,24.99783 -12.803765,43.66999 0,2.13396 0.152425,4.11549 -2.210173,2.51503 -7.697502,5.18248 -10.136314,4.80141 -12.803765,4.80141 -2.591238,0 -4.420348,-1.06698 -1.829109,-0.99077 -3.353367,-3.04852 -3.582006,-4.64898 -3.582006,-11.81299 0,-7.24023 2.286387,-15.01394 2.362599,-7.77372 5.868392,-15.9285 3.505793,-8.15478 7.545077,-16.30956 4.039283,-8.23099 7.545076,-15.85228 8.154779,-17.7576 8.154779,-26.21723 0,-7.39265 -0.990768,-9.907677 -1.905322,-4.572774 -5.487328,-4.7252 0.228639,-5.106263 5.487328,-5.106263 5.25869,0 8.916909,3.886857 5.563541,5.79218 5.563541,17.681393 0,13.79453 -7.240225,30.48515 18.062455,-22.78765 32.847756,-34.14337 17.833816,-13.718321 33.762306,-13.718321 15.24258,0 19.81536,12.041641 1.52425,4.03928 1.52425,9.67903 0,5.56354 -1.60047,10.74602 -1.52425,5.18248 -3.96307,10.13631 -2.3626,4.87763 -5.10626,9.75525 -2.74367,4.87763 -5.10626,10.21253 -5.56355,12.27028 -5.56355,24.54055 0,7.31644 5.79218,9.22176 z"
         id="path315"
         inkscape:label="N" />
      <path
         d="m 163.10861,194.16538 q 0,-4.1155 2.3626,-7.77372 2.43881,-3.73443 6.40188,-7.31644 3.96307,-3.65821 9.06933,-7.39265 5.18248,-3.73443 10.66981,-8.07856 5.48733,-4.34414 10.89844,-9.37419 5.48733,-5.10626 9.98389,-11.43193 10.21253,-14.1756 12.27028,-31.47593 -23.626,2.13397 -31.55214,4.34414 -7.92614,2.13396 -11.96542,5.03005 -3.96307,2.89609 -3.96307,6.4781 0,3.582 0.53349,5.86839 0.6097,2.21017 1.29562,4.03928 0.68591,1.82911 1.2194,3.27716 0.6097,1.44804 0.6097,2.59123 0,2.05775 -5.18247,4.49656 -4.7252,2.21018 -6.93537,2.21018 -2.13397,0 -4.1155,-1.52426 -1.98154,-1.60047 -3.88686,-4.1155 -4.64898,-6.17324 -4.64898,-11.96542 0,-5.79218 2.89609,-9.83146 2.89609,-4.03929 7.77371,-7.01159 4.95384,-2.9723 11.58436,-4.95384 6.63052,-1.98153 14.09938,-3.35336 7.46887,-1.37183 15.3188,-2.21018 7.92614,-0.83834 15.47121,-1.44804 7.54508,-0.68592 14.25181,-1.29562 6.78295,-0.6097 11.96543,-1.44805 11.20329,-1.829105 11.81299,-4.877621 0.60971,-3.048515 1.67669,-5.639753 1.06698,-2.667452 2.51502,-4.7252 3.20094,-4.572773 6.93538,-4.572773 3.73443,0 6.09703,3.734432 2.28638,3.582005 2.28638,7.621289 0,3.96307 -1.82911,6.325669 -1.8291,2.362597 -5.10626,4.191707 -3.20094,1.7529 -7.6975,3.04852 -4.49656,1.29562 -9.75525,2.21017 -8.30721,1.44805 -23.16872,2.74367 0.15243,3.35336 0.15243,6.47809 0,3.04852 -0.15243,7.62129 -0.0762,4.49656 -0.68592,11.27951 -0.53349,6.78295 -1.44804,13.48968 -0.83834,6.70673 -1.90532,12.57513 -2.13396,12.19406 -4.26792,17.22411 -2.05775,5.03005 -4.87763,9.67904 -2.81988,4.64898 -6.24946,8.84069 -3.35336,4.19171 -7.16401,7.84993 -3.81064,3.58201 -7.77371,6.24946 -8.38342,5.71596 -15.16637,5.71596 -6.70673,0 -13.71832,-7.6975 -6.93537,-7.62129 -6.93537,-15.69985 z"
         id="path317"
         inkscape:label="T" />
    </g>
  </g>
</svg>
